HIERARCHY
ROOT reference
{
  OFFSET 0 0 0
  CHANNELS 6 Xposition Yposition Zposition Zrotation Xrotation Yrotation
  JOINT Hips
  {
    OFFSET -10.2532 83.5854 -195.398
    CHANNELS 6 Xposition Yposition Zposition Zrotation Xrotation Yrotation
    JOINT Spine
    {
      OFFSET 0 7.81434 0
      CHANNELS 6 Xposition Yposition Zposition Zrotation Xrotation Yrotation
      JOINT Spine1
      {
        OFFSET 0 23.3781 0
        CHANNELS 6 Xposition Yposition Zposition Zrotation Xrotation Yrotation
        JOINT Neck
        {
          OFFSET 0 23.2821 2.11656
          CHANNELS 6 Xposition Yposition Zposition Zrotation Xrotation Yrotation
          JOINT Head
          {
            OFFSET 0 13.3416 -1.90594
            CHANNELS 6 Xposition Yposition Zposition Zrotation Xrotation Yrotation
            End Site
            {
              OFFSET 0 23.8242 0
            }
          }
        }
        JOINT LeftShoulder
        {
          OFFSET 3.82472 21.4916 -0.175476
          CHANNELS 6 Xposition Yposition Zposition Zrotation Xrotation Yrotation
          JOINT LeftArm
          {
            OFFSET 10.8239 0 0
            CHANNELS 6 Xposition Yposition Zposition Zrotation Xrotation Yrotation
            JOINT LeftForeArm
            {
              OFFSET 28.5356 0 0
              CHANNELS 6 Xposition Yposition Zposition Zrotation Xrotation Yrotation
              JOINT LeftHand
              {
                OFFSET 24.5315 0 0
                CHANNELS 6 Xposition Yposition Zposition Zrotation Xrotation Yrotation
                End Site
                {
                  OFFSET 14.2945 0 0
                }
              }
            }
          }
        }
        JOINT RightShoulder
        {
          OFFSET -3.77033 21.4916 -0.175476
          CHANNELS 6 Xposition Yposition Zposition Zrotation Xrotation Yrotation
          JOINT RightArm
          {
            OFFSET -10.8239 0 0
            CHANNELS 6 Xposition Yposition Zposition Zrotation Xrotation Yrotation
            JOINT RightForeArm
            {
              OFFSET -28.5356 0 0
              CHANNELS 6 Xposition Yposition Zposition Zrotation Xrotation Yrotation
              JOINT RightHand
              {
                OFFSET -24.5315 0 0
                CHANNELS 6 Xposition Yposition Zposition Zrotation Xrotation Yrotation
                End Site
                {
                  OFFSET -14.2945 0 0
                }
              }
            }
          }
        }
      }
    }
    JOINT LeftUpLeg
    {
      OFFSET 9.52968 0 0
      CHANNELS 6 Xposition Yposition Zposition Zrotation Xrotation Yrotation
      JOINT LeftLeg
      {
        OFFSET 0 -40.1884 0
        CHANNELS 6 Xposition Yposition Zposition Zrotation Xrotation Yrotation
        JOINT LeftFoot
        {
          OFFSET 0 -39.9954 0
          CHANNELS 6 Xposition Yposition Zposition Zrotation Xrotation Yrotation
          JOINT LeftToeBase
          {
            OFFSET 0 -6.19429 14.2945
            CHANNELS 6 Xposition Yposition Zposition Zrotation Xrotation Yrotation
            End Site
            {
              OFFSET 0 0 3.81187
            }
          }
        }
      }
    }
    JOINT RightUpLeg
    {
      OFFSET -9.52968 0 0
      CHANNELS 6 Xposition Yposition Zposition Zrotation Xrotation Yrotation
      JOINT RightLeg
      {
        OFFSET 0 -40.1884 0
        CHANNELS 6 Xposition Yposition Zposition Zrotation Xrotation Yrotation
        JOINT RightFoot
        {
          OFFSET 0 -39.9954 0
          CHANNELS 6 Xposition Yposition Zposition Zrotation Xrotation Yrotation
          JOINT RightToeBase
          {
            OFFSET 0 -6.19429 14.2945
            CHANNELS 6 Xposition Yposition Zposition Zrotation Xrotation Yrotation
            End Site
            {
              OFFSET 0 0 3.81187
            }
          }
        }
      }
    }
  }
}
MOTION
Frames:	4
Frame Time:	0.004
0 0 0 0 0 -0 -10.2532 83.5854 -195.398 -0.264669 -1.77598 4.76503 1.77636e-015 7.81434 0 -1.73583 0.794305 -0.404567 -1.77636e-015 23.3781 -2.84217e-014 0.987965 2.57359 -0.43891 0 23.2821 2.11656 1.35238 25.9785 -1.16997 -1.77636e-015 13.3416 -1.90594 1.141 -8.10041 -0.848212 3.82472 21.4916 -0.175476 10.097 5.1787 2.84548 10.8239 -1.42109e-014 0 -22.2742 1.42207 0.221811 28.5356 -1.42109e-014 0 1.78198 -2.82241 -4.81852 24.5315 0 0 7.52789 -3.04293 -4.4937 -3.77033 21.4916 -0.175476 -7.94335 3.77745 5.09195 -10.8239 1.42109e-014 0 22.3638 0.693493 -4.99996 -28.5356 -1.42109e-014 2.84217e-014 -11.5762 -13.2426 17.6368 -24.5315 0 0 -18.3358 -11.9316 2.84314 9.52968 0 0 0.956264 4.32717 2.1306 0 -40.1884 0 -1.69469 2.91421 0.804641 0 -39.9954 -2.84217e-014 9.25643 -6.04699 -3.64769 0 -6.19429 14.2945 -5.09386e-016 0 7.95139e-016 -9.52968 0 0 2.12417 -2.27916 -1.24572 -3.55271e-015 -40.1884 0 -1.47732 11.9997 -3.86749 3.55271e-015 -39.9954 -2.84217e-014 0.057893 -5.51532 2.90948 -1.77636e-015 -6.19429 14.2945 -2.75869e-033 -3.97569e-016 -3.97569e-016 
0 0 0 0 0 -0 -10.2642 83.5855 -195.417 -0.250788 -1.78268 4.76927 -1.77636e-015 7.81434 0 -1.74761 0.907858 -0.408297 0 23.3781 0 0.986999 2.56041 -0.444258 -1.77636e-015 23.2821 2.11656 1.36714 25.9755 -1.1752 0 13.3416 -1.90594 1.11376 -8.18726 -0.857273 3.82472 21.4916 -0.175476 10.0164 5.28627 2.8585 10.8239 1.42109e-014 0 -22.2376 1.12581 0.23985 28.5356 -1.42109e-014 -2.84217e-014 1.51422 -2.6268 -5.06394 24.5315 2.84217e-014 0 7.67988 -2.86012 -4.47103 -3.77033 21.4916 -0.175476 -7.82505 3.91422 5.05309 -10.8239 1.42109e-014 0 22.4332 0.593352 -5.01455 -28.5356 2.84217e-014 -2.84217e-014 -11.5936 -13.265 17.9164 -24.5315 0 2.84217e-014 -18.5034 -11.9425 2.93853 9.52968 0 0 0.926021 4.27584 2.1517 0 -40.1884 0 -1.64597 3.00341 0.829604 3.55271e-015 -39.9954 0 9.20677 -6.08796 -3.66415 0 -6.19429 14.2945 -1.21134e-016 9.93923e-017 3.97569e-016 -9.52968 0 0 2.12399 -2.33878 -1.26662 1.77636e-015 -40.1884 2.84217e-014 -1.49596 12.1183 -3.84387 0 -39.9954 0 0.215122 -5.59295 2.80049 7.10543e-015 -6.19429 14.2945 2.48481e-017 -3.97569e-016 -3.97569e-016 
0 0 0 0 0 -0 -10.2964 83.5857 -195.476 -0.262002 -1.74927 4.74093 1.77636e-015 7.81434 2.84217e-014 -1.74689 1.10387 -0.397063 1.77636e-015 23.3781 2.84217e-014 0.995035 2.53148 -0.435877 1.77636e-015 23.2821 2.11656 1.34345 25.9129 -1.18658 3.55271e-015 13.3416 -1.90594 1.13559 -8.31868 -0.86627 3.82472 21.4916 -0.175476 9.85261 5.46542 2.90587 10.8239 0 2.84217e-014 -22.2635 0.892221 0.190688 28.5356 0 0 1.29012 -2.45818 -5.33089 24.5315 -1.42109e-014 0 7.95335 -2.71834 -4.60667 -3.77033 21.4916 -0.175476 -7.60934 4.13686 4.96645 -10.8239 -1.42109e-014 0 22.6023 0.515436 -5.03561 -28.5356 1.42109e-014 0 -11.6529 -13.4491 18.4309 -24.5315 -2.84217e-014 0 -18.9289 -12.0687 2.89153 9.52968 -1.42109e-014 2.84217e-014 0.912836 4.08339 2.2569 0 -40.1884 2.84217e-014 -1.55875 3.23058 0.852435 0 -39.9954 0 9.09708 -6.15394 -3.72709 1.77636e-015 -6.19429 14.2945 -2.33261e-015 -1.98785e-016 3.97569e-016 -9.52968 1.42109e-014 2.84217e-014 2.17603 -2.53216 -1.27197 0 -40.1884 2.84217e-014 -1.55895 12.3545 -3.81377 0 -39.9954 0 0.501927 -5.68234 2.63298 -1.77636e-015 -6.19429 14.2945 1.2424e-017 -1.19271e-015 3.97569e-016 
0 0 0 0 0 -0 -10.3257 83.5856 -195.531 -0.26234 -1.71459 4.72125 0 7.81434 0 -1.75605 1.27869 -0.390515 0 23.3781 -2.84217e-014 1.0058 2.54338 -0.432568 1.77636e-015 23.2821 2.11656 1.31008 25.8121 -1.18906 0 13.3416 -1.90594 1.16552 -8.43786 -0.865235 3.82472 21.4916 -0.175476 9.69069 5.61065 2.95209 10.8239 1.42109e-014 0 -22.4479 1.594 0.135743 28.5356 -4.26326e-014 0 1.45005 -2.79218 -5.55327 24.5315 0 0 7.76538 -3.03988 -4.69051 -3.77033 21.4916 -0.175476 -7.39817 4.35352 4.85594 -10.8239 -2.84217e-014 0 22.8111 0.565863 -5.00956 -28.5356 0 0 -11.8256 -13.6894 18.8658 -24.5315 5.68434e-014 0 -19.349 -12.2526 2.917 9.52968 1.42109e-014 -2.84217e-014 0.891222 3.8917 2.34211 -3.55271e-015 -40.1884 0 -1.47587 3.46399 0.881116 0 -39.9954 2.84217e-014 8.99845 -6.23803 -3.79298 0 -6.19429 14.2945 1.74558e-015 9.93923e-017 -7.95139e-016 -9.52968 -1.42109e-014 0 2.2136 -2.75949 -1.24109 -3.55271e-015 -40.1884 2.84217e-014 -1.61215 12.6693 -3.8237 0 -39.9954 -2.84217e-014 0.774159 -5.81351 2.45423 0 -6.19429 14.2945 1.2424e-016 3.97569e-016 -7.95139e-016 
